<svg width="470" height="395" viewBox="0 0 470 395" fill="none" xmlns="http://www.w3.org/2000/svg">
<path d="M429.897 81.3211C427.856 83.9936 425.815 86.6662 423.775 89.466C412.295 104.356 400.433 118.991 389.208 134.263C404.004 122.3 417.907 109.319 430.79 95.3201C433.341 92.5203 435.892 89.7205 438.315 86.9207C439.081 86.0298 439.974 85.0117 440.739 84.1209C443.29 81.1939 445.713 78.1395 448.264 75.0852C454.642 67.0676 460.637 58.7955 465.867 49.7599C468.29 45.4329 470.458 41.106 472.499 36.3972C474.285 31.5612 476.198 26.7252 476.453 20.9984C476.581 19.344 476.453 17.6896 476.198 15.9079C475.943 14.6353 475.688 13.2354 475.178 11.9627C474.795 10.4356 473.647 8.90842 472.754 7.50852C471.606 6.23589 470.458 4.96326 469.055 4.07242C464.081 0.636315 459.106 0 454.514 0C453.749 0 452.984 0 452.346 0C442.142 0.509052 433.086 3.69063 424.412 7.12673C424.157 7.254 424.03 7.254 423.775 7.38126C414.846 11.1992 406.427 15.5261 398.392 20.7439C407.448 17.8168 416.504 14.8898 425.56 12.8536C430.662 11.5809 435.764 10.5628 440.866 9.92652C444.183 9.54473 447.499 9.16294 450.688 9.16294C451.326 9.16294 451.836 9.16294 452.474 9.16294C456.683 9.41747 460.765 10.3083 462.933 12.09C463.571 12.599 464.081 13.1081 464.336 13.8717C465.229 15.5261 465.484 17.5623 465.229 20.2348C464.464 27.7434 460.127 36.27 455.662 43.9058C451.198 51.7961 445.841 59.4319 440.484 66.9404C440.101 67.5767 439.591 68.213 439.081 68.8493C436.785 72.0309 434.489 75.2125 432.193 78.3941C431.428 79.2849 430.662 80.303 429.897 81.3211Z" fill="#2C6DDB" fill-opacity="0.05"/>
<path d="M436.529 67.3224C396.988 42.3788 350.049 27.8708 299.921 27.8708C158.338 27.8708 43.1592 142.789 43.1592 284.051C43.1592 300.214 44.6898 316.122 47.6235 331.521C51.3225 335.466 56.1695 339.665 61.7817 341.32C57.3174 322.994 54.8939 303.777 54.8939 284.051C54.8939 149.28 164.844 39.5791 299.921 39.5791C347.498 39.5791 391.886 53.3235 429.641 76.8671L429.769 76.6126C431.937 73.8128 434.105 70.7585 436.529 67.3224Z" fill="#2C6DDB" fill-opacity="0.05"/>
<path d="M450.56 76.7397C450.56 76.7397 450.56 76.867 450.56 76.7397C447.882 80.1758 445.458 83.1029 443.162 85.7754C504.77 130.19 544.948 202.476 544.948 283.924C544.948 298.814 543.545 313.449 540.994 327.575L550.561 339.793C554.642 321.848 556.811 303.141 556.811 283.924C556.683 198.785 514.846 123.318 450.56 76.7397Z" fill="#2C6DDB" fill-opacity="0.05"/>
<path d="M241.121 129.172C240.483 122.936 243.927 124.336 241.121 114.028C238.315 103.719 230.152 103.083 221.223 98.2471C212.294 93.4111 207.447 85.9026 199.922 88.7024C192.396 91.5022 184.105 94.1747 173.774 101.047C163.442 107.919 159.36 119.627 153.876 111.355C149.411 104.61 157.83 93.6656 152.983 93.4111C145.712 99.0107 138.824 104.992 132.192 111.355C130.023 114.537 128.493 117.718 122.115 121.664C109.105 135.79 97.8803 151.443 88.569 168.496C88.8241 181.477 92.5231 189.622 89.2068 197.258C85.1251 206.803 80.2782 223.983 84.3598 235.691C88.4415 247.399 94.6915 272.725 100.176 273.488C105.661 274.125 107.064 277.179 116.63 286.342C126.197 295.505 139.335 294.105 149.666 303.013C152.983 305.94 156.299 309.249 159.615 312.304C163.187 309.758 166.631 307.213 169.947 304.668C168.672 302.886 167.524 300.85 166.758 298.814C163.952 291.941 198.391 243.963 200.432 232.255C202.473 220.547 199.794 211.002 212.167 209.602C224.539 208.202 237.677 210.239 238.953 204.13C240.228 198.021 224.539 206.166 223.774 198.658C223.136 191.149 237.55 180.841 241.631 188.349C245.713 195.858 256.045 196.621 257.448 193.822C258.851 191.022 257.448 186.313 252.601 174.605C248.009 162.769 241.759 135.408 241.121 129.172Z" fill="#2C6DDB" fill-opacity="0.05"/>
<path d="M251.456 51.6688C244.058 52.5596 238.955 52.5596 234.874 52.4324C224.159 55.3594 213.828 59.05 203.751 63.5042C194.44 68.9766 186.787 72.1581 186.021 72.0309C180.664 74.9579 175.307 78.1395 170.205 81.3211C170.205 81.8301 170.205 82.4664 170.205 83.3573C170.205 90.9931 172.246 97.1017 179.134 90.2295C186.021 83.3573 208.088 81.0665 211.404 80.812C214.848 80.5575 231.302 69.6129 241.634 64.1406C252.093 58.541 274.16 48.869 251.456 51.6688Z" fill="#2C6DDB" fill-opacity="0.05"/>
<path d="M342.269 88.0662C349.157 83.103 347.754 76.9943 349.795 69.4858C351.836 61.9773 370.458 61.9773 362.167 57.7776C354.004 53.7052 338.826 50.9054 320.968 52.9416C303.111 54.9778 268.034 48.8692 252.856 61.85C244.692 68.8495 232.192 79.0305 241.886 79.0305C251.58 79.0305 256.172 74.0673 261.402 80.685C266.631 87.3026 264.59 97.611 264.59 102.447C264.59 107.283 261.784 118.228 268.672 131.972C275.56 145.716 276.198 154.625 283.085 145.716C289.973 136.808 306.427 119.627 314.718 118.228C323.009 116.828 331.172 113.392 335.382 106.519C339.591 99.6472 335.382 93.0295 342.269 88.0662Z" fill="#2C6DDB" fill-opacity="0.05"/>
<path d="M540.87 276.034C539.084 221.438 519.186 171.423 486.788 131.845C485.895 131.972 485.13 132.099 484.619 132.608C477.732 138.081 477.732 127.772 462.553 117.464C447.374 107.156 444.696 98.2472 432.961 111.355C421.226 124.336 418.547 135.408 411.66 138.844C404.772 142.28 399.287 153.225 406.813 156.025C415.231 169.642 522.12 303.777 522.12 303.777C527.222 300.977 536.533 305.813 538.319 303.777C541.762 299.577 540.87 284.433 540.87 276.034Z" fill="#2C6DDB" fill-opacity="0.05"/>
<path d="M383.596 155.261C379.386 156.534 356.81 183.386 364.335 184.15C371.861 184.786 384.106 183.259 386.784 182.623L391.886 176.514C391.759 169.642 390.356 153.225 383.596 155.261Z" fill="#2C6DDB" fill-opacity="0.05"/>
<path d="M361.273 128.536C355.278 123.064 348.39 122.3 338.824 123.7C334.615 124.336 333.339 134.644 342.268 136.044C351.196 137.444 367.268 134.008 361.273 128.536Z" fill="#2C6DDB" fill-opacity="0.05"/>
<path d="M236.532 299.323L231.302 302.886L218.547 311.54C212.425 315.358 206.43 319.431 200.18 322.867C187.935 330.375 175.179 336.866 162.042 342.592C149.031 348.446 135.511 353.028 121.735 355.828C107.96 358.882 93.8014 359.518 80.1533 357.355C66.5053 355.191 53.495 349.337 43.2909 339.793C33.0867 330.248 26.1989 316.885 25.051 302.25C23.6479 316.885 29.1326 332.157 39.0817 343.738C49.1583 355.191 63.3165 363.082 78.3676 366.391C93.4187 369.827 108.98 369.318 123.776 366.772C138.7 364.1 152.985 359.264 166.633 353.41C192.144 342.083 215.741 327.066 237.425 310.14C238.955 308.995 240.358 307.85 241.889 306.704C264.848 288.378 286.022 268.016 305.41 246.127C282.833 264.453 260.129 282.651 236.532 299.323Z" fill="#2C6DDB" fill-opacity="0.05"/>
<path d="M418.546 307.086L390.74 270.179C249.03 373.008 170.968 389.552 98.5185 390.825C0.431224 392.607 14.2068 313.194 29.0028 275.397C28.7477 275.779 28.6202 276.161 28.3651 276.415C1.06898 317.394 -7.85964 355.573 7.44657 383.698C31.2988 427.477 107.957 435.494 201.835 410.805C223.774 404.951 246.606 397.443 270.076 388.152C291.504 379.244 311.02 369.445 330.663 359.773C333.596 358.118 336.275 356.591 338.954 355.064L339.336 354.809C345.459 351.246 350.816 347.937 355.408 345.137L384.107 327.702C384.49 328.211 384.872 328.72 385.382 329.484C400.689 350.737 483.087 464.637 492.016 475.073C461.786 499.762 406.429 529.669 335.51 549.14C253.621 571.538 175.815 562.503 129.386 544.05C221.734 608.699 402.474 565.939 480.281 527.505C523.904 507.398 551.965 483.6 551.965 483.6L418.546 307.086Z" fill="#2C6DDB" fill-opacity="0.05"/>
<path d="M407.452 172.696C324.926 274.252 210.385 351.374 210.385 351.374C290.232 319.176 403.626 209.984 403.626 209.984L551.841 402.788L519.06 427.222L534.366 447.585L586.535 406.606C586.535 406.606 457.708 235.564 407.452 172.696Z" fill="#2C6DDB" fill-opacity="0.05"/>
</svg>
