<svg width="67" height="62" viewBox="0 0 67 62" fill="none" xmlns="http://www.w3.org/2000/svg">
<path fill-rule="evenodd" clip-rule="evenodd" d="M3.03018 18.4163C-1.12648 27.5136 1.32555 37.7939 2.06686 40.4143C2.177 40.8037 2.52005 41.0663 2.92398 41.0897C3.51785 41.1242 4.45304 41.1721 5.49986 41.2019C6.20822 41.2222 6.9192 41.2327 7.51893 41.2381C8.24907 41.2447 8.745 40.4819 8.48445 39.7998C7.75709 37.8957 6.62571 34.382 6.62571 30.9484C6.62571 25.8881 8.58796 21.1421 8.58796 21.1421C8.58796 21.1421 9.14136 21.7683 9.14136 23.2332C9.14136 24.6981 9.47882 30.8639 11.7264 33.0458C13.974 35.2277 17.2343 35.4621 18.2224 35.0114C19.2105 34.5607 19.4715 33.2253 19.4715 31.5094C19.4715 29.7936 19.5071 28.6592 20.4464 28.1756C21.3857 27.6921 23.0458 25.8775 23.7408 24.0108C24.4359 22.1441 25.8806 22.5326 27.0649 21.1421C28.2492 19.7516 28.3331 16.2015 24.7912 14.1201C21.2492 12.0387 16.1599 13.8551 16.1599 13.8551C16.1599 13.8551 15.5084 13.9862 15.0286 13.8551C14.5488 13.724 13.9793 13.3995 13.9793 13.3995C13.9793 13.3995 18.4319 9.2748 24.087 7.5947C24.087 7.5947 24.3887 8.04032 25.4213 8.59194C26.4539 9.14356 26.8905 9.01418 27.1706 9.32949C27.4507 9.64481 27.9151 10.1217 28.3091 12.3302C28.7031 14.5387 29.9616 15.4088 31.136 15.2507C32.3104 15.0926 33.2087 13.3995 33.2087 13.3995C33.2087 13.3995 34.1236 11.8196 35.6069 11.0702C37.0902 10.3208 38.1074 9.12603 38.5146 8.13458C38.5187 8.12461 38.5275 8.10545 38.5275 8.10545C38.5275 8.10545 39.2802 8.35549 40.2443 8.78766C41.2084 9.21983 41.9895 9.65169 41.9895 9.65169C41.9895 9.65169 40.1948 14.7396 38.6183 16.398C37.0419 18.0563 35.353 18.6822 34.7551 20.5909C34.1572 22.4996 34.1572 24.4927 35.3276 25.6279C36.498 26.7632 37.8838 26.4256 38.5146 27.1139C39.1455 27.8022 37.9562 28.9882 36.3557 29.7314C35.6549 30.0567 34.0791 31.2327 33.4688 33.0458C33.3102 33.5169 33.3092 34.3466 33.3484 35.062C33.3849 35.7286 34.0763 36.1148 34.6741 35.8175C36.1232 35.0969 38.6539 33.747 41.0013 32.0422C43.4693 30.2498 45.6587 28.1202 46.7673 26.9848C47.1833 26.5588 47.8815 26.5639 48.2881 26.999C49.2061 27.9814 50.9145 29.7547 53.1436 31.8237C55.3277 33.8509 57.5396 35.4619 58.8508 36.3602C59.4239 36.7528 60.1741 36.423 60.2577 35.7333C60.5385 33.4169 60.8429 28.5364 59.4328 23.2332C57.4747 15.8688 54.4819 12.3302 54.4819 12.3302C54.4819 12.3302 47.3858 3.59465 37.8604 1.47046C28.3349 -0.653728 19.554 2.6206 19.554 2.6206C19.554 2.6206 7.8388 7.89209 3.03018 18.4163Z" fill="#373434"/>
<path fill-rule="evenodd" clip-rule="evenodd" d="M8.03913 47.8805C7.17622 47.8933 6.73154 48.8821 7.34973 49.4843C11.1682 53.2039 21.8703 62.0523 36.6566 61.324C41.9412 61.0637 46.6808 59.9902 51.3365 58.3271C58.4228 55.7957 64.1554 50.5781 66.4347 48.2925C66.9468 47.779 66.7193 46.9274 66.0357 46.6853C63.8119 45.8977 59.4979 44.2237 56.2887 42.0744C52.8627 39.78 49.7207 37.0075 48.4066 35.8057C48.0323 35.4634 47.4655 35.4393 47.0628 35.7477C44.8173 37.4673 37.3883 42.8002 28.6507 45.2449C20.8633 47.4238 12.0636 47.8208 8.03913 47.8805ZM47.3788 44.0699C36.0289 51.6057 22.0245 52.5779 22.0245 52.5779C22.0245 52.5779 29.1805 55.5533 38.0707 54.5881C46.9609 53.6228 54.9065 48.9396 54.9065 48.9396C54.9065 48.9396 52.2999 47.6188 51.2089 46.9051C50.1179 46.1914 47.3788 44.0699 47.3788 44.0699Z" fill="#373434"/>
</svg>
