<svg width="232" height="277" viewBox="0 0 232 277" fill="none" xmlns="http://www.w3.org/2000/svg">
<path fill-rule="evenodd" clip-rule="evenodd" d="M52.5673 13.8956C53.5096 6.22129 60.4947 0.763879 68.1691 1.70617L217.274 20.014C224.949 20.9563 230.406 27.9415 229.464 35.6158L202.448 255.643L183.906 239.885L164.26 249.594L147.135 234.061L128.466 245.835L112.615 230.985L93.1101 242.381L78.2251 227.614L59.9834 237.134L45.8447 222.485L25.5514 233.923L52.5673 13.8956Z" fill="url(#paint0_linear_2685_106462)"/>
<path fill-rule="evenodd" clip-rule="evenodd" d="M0.488593 55.2962C0.21875 47.5689 6.2642 41.0859 13.9915 40.8161L164.125 35.5733C171.852 35.3035 178.335 41.3489 178.605 49.0762L186.342 270.62L165.563 257.957L147.678 270.62L128.334 257.957L111.736 272.507L93.7571 260.319L76.2752 274.626L59.2634 262.369L42.7355 274.626L26.4794 262.369L8.22509 276.84L0.488593 55.2962Z" fill="url(#paint1_linear_2685_106462)"/>
<mask id="mask0_2685_106462" style="mask-type:luminance" maskUnits="userSpaceOnUse" x="0" y="35" width="187" height="242">
<path fill-rule="evenodd" clip-rule="evenodd" d="M0.488593 55.2962C0.21875 47.5689 6.2642 41.0859 13.9915 40.8161L164.125 35.5733C171.852 35.3035 178.335 41.3489 178.605 49.0762L186.342 270.62L165.563 257.957L147.678 270.62L128.334 257.957L111.736 272.507L93.7571 260.319L76.2752 274.626L59.2634 262.369L42.7355 274.626L26.4794 262.369L8.22509 276.84L0.488593 55.2962Z" fill="white"/>
</mask>
<g mask="url(#mask0_2685_106462)">
<g style="mix-blend-mode:overlay" opacity="0.222831">
<circle cx="181.695" cy="44.5703" r="153.016" fill="url(#paint2_linear_2685_106462)"/>
</g>
</g>
<g filter="url(#filter0_d_2685_106462)">
<circle cx="178.179" cy="89.1281" r="26.382" fill="white"/>
</g>
<path d="M184.297 95.0273C185.352 95.7539 186.324 96.2852 187.215 96.6211L186.547 98.2031C185.313 97.7578 184.082 97.0547 182.856 96.0938C181.582 96.8047 180.176 97.1602 178.637 97.1602C177.082 97.1602 175.672 96.7852 174.406 96.0352C173.141 95.2852 172.164 94.2305 171.477 92.8711C170.797 91.5117 170.457 89.9805 170.457 88.2773C170.457 86.582 170.801 85.0391 171.488 83.6484C172.176 82.2578 173.152 81.1992 174.418 80.4727C175.691 79.7461 177.113 79.3828 178.684 79.3828C180.27 79.3828 181.699 79.7617 182.973 80.5195C184.246 81.2695 185.215 82.3242 185.879 83.6836C186.551 85.0352 186.887 86.5625 186.887 88.2656C186.887 89.6797 186.672 90.9531 186.242 92.0859C185.813 93.2109 185.164 94.1914 184.297 95.0273ZM179.293 92.1211C180.606 92.4883 181.688 93.0352 182.539 93.7617C183.875 92.543 184.543 90.7109 184.543 88.2656C184.543 86.875 184.305 85.6602 183.828 84.6211C183.359 83.582 182.668 82.7773 181.754 82.207C180.848 81.6289 179.828 81.3398 178.695 81.3398C177 81.3398 175.594 81.9219 174.477 83.0859C173.359 84.2422 172.801 85.9727 172.801 88.2773C172.801 90.5117 173.352 92.2266 174.453 93.4219C175.563 94.6172 176.977 95.2148 178.695 95.2148C179.508 95.2148 180.274 95.0625 180.992 94.7578C180.281 94.2969 179.531 93.9688 178.742 93.7734L179.293 92.1211Z" fill="#53C734"/>
<path fill-rule="evenodd" clip-rule="evenodd" d="M88.6317 79.1188C88.2521 79.5357 87.7716 79.7542 87.1904 79.7745C86.6279 79.7942 86.1334 79.6096 85.7069 79.2209C85.2803 78.8322 85.0569 78.3473 85.0366 77.7661C85.0169 77.2036 85.2063 76.7136 85.6047 76.2961C86.0031 75.8786 86.4836 75.66 87.046 75.6404C87.6273 75.6201 88.1218 75.8046 88.5296 76.1939C88.9374 76.5833 89.1511 77.0592 89.1708 77.6217C89.1911 78.2029 89.0114 78.7019 88.6317 79.1188ZM80.245 96.7147C79.468 97.0422 78.6014 97.2227 77.6452 97.256L69.8831 97.5271L69.1858 77.5593L76.0761 77.3187C76.9761 77.2873 77.7967 77.4041 78.5381 77.6692C79.2794 77.9342 79.9168 78.3109 80.45 78.7991C80.9833 79.2873 81.4069 79.8592 81.7207 80.5146C82.0346 81.17 82.2046 81.8728 82.2308 82.6227C82.2622 83.5227 82.1155 84.2928 81.7906 84.933C81.4656 85.5732 81.0385 86.109 80.5092 86.5405C81.441 86.8834 82.2252 87.4332 82.8617 88.19C83.4982 88.9469 83.8381 89.944 83.8813 91.1814C83.9101 92.0064 83.7776 92.7807 83.4837 93.5043C83.1898 94.2279 82.7708 94.862 82.2267 95.4066C81.6826 95.9512 81.022 96.3872 80.245 96.7147ZM72.7697 85.8534L76.2008 85.7336C77.1008 85.7021 77.7995 85.4196 78.2971 84.886C78.7947 84.3524 79.0301 83.7012 79.0033 82.9325C78.9777 82.2013 78.6978 81.5775 78.1636 81.0612C77.6293 80.5448 76.9122 80.3024 76.0123 80.3338L72.5812 80.4536L72.7697 85.8534ZM77.4558 94.2498L73.0685 94.403L72.8681 88.6658L77.2554 88.5125C78.3241 88.4752 79.1539 88.7184 79.7447 89.2422C80.3356 89.766 80.6454 90.4403 80.6742 91.2653C80.7037 92.109 80.4418 92.808 79.8886 93.3623C79.3354 93.9166 78.5245 94.2125 77.4558 94.2498ZM89.3352 96.8478L88.8442 82.786L85.7506 82.894L86.2416 96.9558L89.3352 96.8478ZM94.9169 75.5344L95.6535 96.6272L92.5599 96.7352L91.8233 75.6425L94.9169 75.5344ZM101.972 96.4065L101.235 75.3138L98.1419 75.4218L98.8784 96.5145L101.972 96.4065ZM111.693 96.053C111.081 96.2714 110.41 96.3934 109.678 96.419C108.422 96.4628 107.284 96.2586 106.264 95.8061C105.244 95.3537 104.463 94.63 103.922 93.6353L106.143 91.9246C106.445 92.5335 106.917 92.9957 107.557 93.3112C108.197 93.6268 108.873 93.7721 109.585 93.7472C110.129 93.7282 110.598 93.5852 110.992 93.318C111.386 93.0508 111.575 92.6734 111.558 92.186C111.544 91.7735 111.382 91.4412 111.073 91.1892C110.764 90.9372 110.183 90.6947 109.33 90.4617L108.08 90.1674C106.831 89.8731 105.884 89.3665 105.24 88.6475C104.595 87.9285 104.264 87.0437 104.246 85.9931C104.224 85.3744 104.336 84.812 104.581 84.306C104.826 83.8 105.168 83.3657 105.606 83.0031C106.044 82.6406 106.564 82.3549 107.167 82.1461C107.77 81.9374 108.427 81.8205 109.14 81.7957C110.208 81.7583 111.153 81.9272 111.973 82.3021C112.793 82.6771 113.461 83.2498 113.976 84.0202L111.896 85.726C111.562 85.3059 111.17 84.9723 110.72 84.7252C110.27 84.4781 109.755 84.3647 109.174 84.385C108.705 84.4014 108.278 84.5289 107.892 84.7677C107.506 85.0064 107.321 85.3414 107.336 85.7726C107.347 86.1101 107.466 86.4157 107.691 86.6894C107.917 86.9631 108.38 87.191 109.081 87.373L110.53 87.7447C111.781 88.0765 112.764 88.5584 113.481 89.1904C114.197 89.8224 114.576 90.7196 114.617 91.8821C114.64 92.557 114.53 93.1663 114.286 93.7098C114.042 94.2533 113.702 94.7251 113.266 95.1252C112.829 95.5252 112.305 95.8345 111.693 96.053Z" fill="white"/>
<path fill-rule="evenodd" clip-rule="evenodd" d="M35.7378 152.327C35.6992 151.223 36.5629 150.297 37.6668 150.258L147.336 146.429C148.44 146.39 149.366 147.254 149.404 148.358L149.428 149.047C149.467 150.151 148.603 151.077 147.499 151.116L37.8304 154.946C36.7265 154.984 35.8004 154.121 35.7619 153.017L35.7378 152.327Z" fill="white"/>
<path fill-rule="evenodd" clip-rule="evenodd" d="M36.9135 175.776C36.875 174.672 37.7386 173.746 38.8425 173.708L148.511 169.878C149.615 169.839 150.541 170.703 150.58 171.807L150.604 172.497C150.643 173.6 149.779 174.527 148.675 174.565L39.0062 178.395C37.9023 178.433 36.9762 177.57 36.9376 176.466L36.9135 175.776Z" fill="white"/>
<path fill-rule="evenodd" clip-rule="evenodd" d="M38.0854 199.225C38.0469 198.121 38.9105 197.195 40.0144 197.157L149.683 193.327C150.787 193.288 151.713 194.152 151.752 195.256L151.776 195.946C151.815 197.05 150.951 197.976 149.847 198.014L40.1781 201.844C39.0742 201.883 38.1481 201.019 38.1095 199.915L38.0854 199.225Z" fill="white"/>
<defs>
<filter id="filter0_d_2685_106462" x="138.797" y="62.7461" width="78.7656" height="80.7656" filterUnits="userSpaceOnUse" color-interpolation-filters="sRGB">
<feFlood flood-opacity="0" result="BackgroundImageFix"/>
<feColorMatrix in="SourceAlpha" type="matrix" values="0 0 0 0 0 0 0 0 0 0 0 0 0 0 0 0 0 0 127 0" result="hardAlpha"/>
<feOffset dy="15"/>
<feGaussianBlur stdDeviation="6.5"/>
<feColorMatrix type="matrix" values="0 0 0 0 0 0 0 0 0 0 0 0 0 0 0 0 0 0 0.166936 0"/>
<feBlend mode="normal" in2="BackgroundImageFix" result="effect1_dropShadow_2685_106462"/>
<feBlend mode="normal" in="SourceGraphic" in2="effect1_dropShadow_2685_106462" result="shape"/>
</filter>
<linearGradient id="paint0_linear_2685_106462" x1="28.2614" y1="-69.9766" x2="-19.0696" y2="263.083" gradientUnits="userSpaceOnUse">
<stop stop-color="#58B7FB"/>
<stop offset="1" stop-color="#2A53BE"/>
</linearGradient>
<linearGradient id="paint1_linear_2685_106462" x1="-22.377" y1="21.4104" x2="-12.1449" y2="314.421" gradientUnits="userSpaceOnUse">
<stop stop-color="#58B7FB"/>
<stop offset="1" stop-color="#2559DD"/>
</linearGradient>
<linearGradient id="paint2_linear_2685_106462" x1="169.486" y1="19.7388" x2="38.8254" y2="44.158" gradientUnits="userSpaceOnUse">
<stop stop-color="white" stop-opacity="0.01"/>
<stop offset="1" stop-color="white"/>
</linearGradient>
</defs>
</svg>
