<svg width="12" height="19" viewBox="0 0 12 19" fill="none" xmlns="http://www.w3.org/2000/svg">
<path d="M11.1429 5.60312C11.1429 2.62413 8.83714 0.203125 6 0.203125C3.16286 0.203125 0.857143 2.62413 0.857143 5.60312C0.857143 9.65312 6 15.5031 6 15.5031C6 15.5031 11.1429 9.65312 11.1429 5.60312ZM4.28571 5.60312C4.28571 4.61312 5.05714 3.80312 6 3.80312C6.94286 3.80312 7.71429 4.61312 7.71429 5.60312C7.71429 6.59312 6.95143 7.40312 6 7.40312C5.05714 7.40312 4.28571 6.59312 4.28571 5.60312ZM0 16.4031V18.2031H12V16.4031H0Z" fill="white"/>
</svg>
